# xmcd
#
# Track frame offsets: 
#        150
#        12332
#        33230
#        48017
#        59583
#        74228
#        88103
#        102535
#        116706
#        130688
#        143012
#        155147
#        169461
#        179772
#        191836
#        205463
#        219031
#        234033
#        248465
#
# Disc length: 3494 seconds
#
# Revision: 1
# Processed by: cddbd v1.5.2PL0 Copyright (c) Steve Scherf et al.
# Submitted via: ExactAudioCopy v0.99pb4
#
DISCID=180da413
DTITLE=Glenn Miller - Anvil Chorus, Quadromania [CD3]
DYEAR=2005
DGENRE=Jazz
TTITLE0=Chip Off The Old Block
TTITLE1=Blues In The Night
TTITLE2=At The President's Birthday Ball
TTITLE3=On The Old Assembly Line
TTITLE4=Let's Have Another Cup O' Coffee
TTITLE5=Shhh, It's A Military Secret
TTITLE6=Don't Sit Under The Apple Tree
TTITLE7=When Johnny Comes Marching Home
TTITLE8=At Last
TTITLE9=That's Sabotage
TTITLE10=Knit One, Purl Two
TTITLE11=Conchita, Marquita, Lolita, Pepita, Rosita, Juanita Lopez
TTITLE12=The Humming-Bird
TTITLE13=Caribbean Clipper
TTITLE14=Here We Go Again
TTITLE15=It Must Be Jelly ('Cause Jam Don't Shake Like That)
TTITLE16=Rainbow Rhapsody
TTITLE17=Sleepy Town Train
TTITLE18=Rhapsody In Blue
EXTD=
EXTT0=
EXTT1=
EXTT2=
EXTT3=
EXTT4=
EXTT5=
EXTT6=
EXTT7=
EXTT8=
EXTT9=
EXTT10=
EXTT11=
EXTT12=
EXTT13=
EXTT14=
EXTT15=
EXTT16=
EXTT17=
EXTT18=
PLAYORDER=
